HIERARCHY
ROOT Hips
{
 OFFSET 0.000000 0.000000 0.000000
 CHANNELS 6 Xposition Yposition Zposition Yrotation Xrotation Zrotation
 JOINT Chest
 {
  OFFSET 0.000000 9.585900 0.002600
  CHANNELS 3 Yrotation Xrotation Zrotation
  JOINT Chest2
  {
   OFFSET 0.000000 9.601200 -0.005300
   CHANNELS 3 Yrotation Xrotation Zrotation
   JOINT Chest3
   {
    OFFSET 0.000000 9.561800 0.000000
    CHANNELS 3 Yrotation Xrotation Zrotation
    JOINT Chest4
    {
     OFFSET 0.000000 9.552100 0.000000
     CHANNELS 3 Yrotation Xrotation Zrotation
     JOINT Neck
     {
      OFFSET 0.000000 14.453000 0.000000
      CHANNELS 3 Yrotation Xrotation Zrotation
      JOINT Head
      {
       OFFSET 0.000000 8.936500 -0.011300
       CHANNELS 3 Yrotation Xrotation Zrotation
       End Site
       {
        OFFSET 0.000000 17.073600 -0.006000
       }
      }
     }
     JOINT RightCollar
     {
      OFFSET -2.921100 9.558500 0.000000
      CHANNELS 3 Yrotation Xrotation Zrotation
      JOINT RightShoulder
      {
       OFFSET -13.519700 0.000000 0.000000
       CHANNELS 3 Yrotation Xrotation Zrotation
       JOINT RightElbow
       {
        OFFSET 0.000000 -29.696600 0.000000
        CHANNELS 3 Yrotation Xrotation Zrotation
        JOINT RightWrist
        {
         OFFSET 0.000000 -24.004700 0.000000
         CHANNELS 3 Yrotation Xrotation Zrotation
         End Site
         {
          OFFSET 0.000000 -17.728500 0.000000
         }
        }
       }
      }
     }
     JOINT LeftCollar
     {
      OFFSET 2.921100 9.558500 0.000000
      CHANNELS 3 Yrotation Xrotation Zrotation
      JOINT LeftShoulder
      {
       OFFSET 13.519700 0.000000 0.000000
       CHANNELS 3 Yrotation Xrotation Zrotation
       JOINT LeftElbow
       {
        OFFSET 0.000000 -29.696600 0.000000
        CHANNELS 3 Yrotation Xrotation Zrotation
        JOINT LeftWrist
        {
         OFFSET 0.000000 -24.004700 0.000000
         CHANNELS 3 Yrotation Xrotation Zrotation
         End Site
         {
          OFFSET 0.000000 -17.728500 0.000000
         }
        }
       }
      }
     }
    }
   }
  }
 }
 JOINT RightHip
 {
  OFFSET -7.771700 -0.012900 -0.001300
  CHANNELS 3 Yrotation Xrotation Zrotation
  JOINT RightKnee
  {
   OFFSET 0.000000 -40.869800 0.001200
   CHANNELS 3 Yrotation Xrotation Zrotation
   JOINT RightAnkle
   {
    OFFSET 0.000000 -39.717900 0.002100
    CHANNELS 3 Yrotation Xrotation Zrotation
    JOINT RightToe
    {
     OFFSET 0.000000 -4.965400 11.033500
     CHANNELS 3 Yrotation Xrotation Zrotation
     End Site
     {
      OFFSET 0.000000 -1.423100 5.872300
     }
    }
   }
  }
 }
 JOINT LeftHip
 {
  OFFSET 7.771700 -0.012900 -0.001300
  CHANNELS 3 Yrotation Xrotation Zrotation
  JOINT LeftKnee
  {
   OFFSET 0.000000 -40.869800 0.001200
   CHANNELS 3 Yrotation Xrotation Zrotation
   JOINT LeftAnkle
   {
    OFFSET 0.000000 -39.717900 0.002100
    CHANNELS 3 Yrotation Xrotation Zrotation
    JOINT LeftToe
    {
     OFFSET 0.000000 -4.965400 11.033500
     CHANNELS 3 Yrotation Xrotation Zrotation
     End Site
     {
      OFFSET 0.000000 -1.423100 5.872300
     }
    }
   }
  }
 }
}
MOTION
Frames: 9
Frame Time: 0.008333
0.000000 85.388000 0.000000 0.000000 -5.767877 0.000000 0.000000 11.653817 0.000000 0.000000 -5.885947 0.000000 0.000000 -0.000000 0.000000 0.000000 -0.000000 0.000000 0.000000 12.528835 0.000000 0.000000 0.711642 0.000000 0.000000 -0.000000 0.000000 0.000000 0.000000 -90.000000 0.000000 -2.309062 0.000000 0.000000 2.309062 0.000000 0.000000 -0.000000 0.000000 0.000000 -0.000000 90.000000 0.000000 -2.309062 0.000000 0.000000 2.309062 0.000000 0.000000 8.520406 0.000000 0.000000 1.905762 0.000000 -0.000000 -4.658285 0.000000 0.000000 -0.000000 0.000000 0.000000 8.520406 0.000000 0.000000 1.905762 0.000000 -0.000000 -4.658285 0.000000 0.000000 -0.000000 0.000000
-28.912739 50.410591 7.243030 163.655460 -14.641261 -0.822621 4.196646 10.669641 0.708423 0.285737 0.744556 -0.031911 0.527638 1.249942 -0.039257 3.802336 9.884322 -0.110496 3.027460 17.543439 0.791415 5.366738 -3.456049 0.460015 5.097613 4.475200 -2.162818 -0.743656 -31.339542 -17.945304 -135.170636 -69.199853 156.255105 -0.186990 7.174713 -21.922318 -8.320691 0.366938 2.610529 11.410789 -21.795312 10.828755 131.697172 -66.035675 -160.093901 -0.850789 7.121277 9.995973 -3.176405 -66.449574 0.274254 -112.473565 83.687901 -111.599240 -3.415775 -12.876803 0.298199 -0.346761 0.739935 -0.131081 -11.687672 -69.480104 26.547069 104.765967 77.845491 101.409668 -16.079463 -19.629186 -0.982062 -0.238801 -1.370268 -0.050328
-28.915935 50.413790 7.248838 163.655470 -14.577494 -0.824064 4.165089 10.648527 0.688435 0.291694 0.730316 -0.029695 0.513446 1.246990 -0.044979 3.782449 9.858410 -0.121649 3.067548 17.452114 0.807308 5.434746 -3.628097 0.471418 5.107964 4.437221 -2.153163 -1.009844 -31.177471 -17.881076 -133.542882 -69.276444 154.848403 -0.214211 7.420359 -21.838710 -8.296408 0.316912 2.603153 11.401671 -21.664928 10.812266 131.832192 -66.104988 -160.142166 -0.966415 7.239916 9.833312 -3.176742 -66.511025 0.282261 -112.372535 83.687983 -111.499625 -3.417044 -12.869983 0.296631 -0.347927 0.742890 -0.127930 -11.617969 -69.552268 26.502047 104.599058 77.839696 101.263318 -16.127058 -19.562769 -0.985424 -0.237320 -1.346090 -0.042774
-28.921939 50.416411 7.261994 163.704442 -14.463289 -0.832481 4.098953 10.557773 0.668195 0.298779 0.718200 -0.027191 0.458334 1.297528 -0.061680 3.794757 9.808803 -0.126296 3.088970 17.295195 0.824624 5.508669 -3.746979 0.481712 5.033987 4.346145 -2.154168 -1.216017 -30.958149 -17.815855 -132.128701 -69.277297 153.666232 -0.240722 7.558586 -21.802513 -8.277186 0.243393 2.577716 11.413736 -21.525865 10.799204 131.977912 -66.120428 -160.239496 -1.054851 7.290360 9.682719 -3.212967 -66.620334 0.284823 -112.212191 83.686191 -111.342833 -3.428366 -12.861053 0.297488 -0.337159 0.748118 -0.124364 -11.668995 -69.667127 26.519323 104.270765 77.774215 100.927584 -16.210466 -19.453054 -0.991708 -0.244111 -1.335589 -0.038353
-28.924003 50.421572 7.272055 163.699195 -14.375237 -0.841659 4.062108 10.525243 0.651883 0.308132 0.703731 -0.025647 0.443933 1.300645 -0.065465 3.791264 9.782568 -0.135366 3.118019 17.174411 0.840171 5.568905 -3.907618 0.496403 4.956009 4.253611 -2.158235 -1.427897 -30.729784 -17.750545 -130.999664 -69.225595 152.759246 -0.258108 7.603461 -21.792265 -8.245447 0.181881 2.562845 11.453255 -21.409159 10.755046 132.118652 -66.091947 -160.372745 -1.121760 7.288006 9.541788 -3.245647 -66.698402 0.343283 -111.912548 83.685634 -111.059809 -3.432591 -12.847187 0.304000 -0.335105 0.756714 -0.123371 -11.688841 -69.751991 26.557491 104.046910 77.741233 100.706778 -16.245252 -19.352661 -1.009810 -0.254775 -1.369420 -0.024924
-28.927112 50.427810 7.282793 163.673233 -14.282641 -0.836691 4.042863 10.486820 0.623812 0.279499 0.730029 -0.034625 0.479423 1.253017 -0.057151 3.736721 9.774621 -0.167893 3.197812 17.066109 0.870884 5.614457 -4.079678 0.518211 4.938679 4.170894 -2.147049 -1.664651 -30.509237 -17.682461 -130.196135 -69.140050 152.158819 -0.264061 7.585800 -21.792084 -8.158801 0.150728 2.587859 11.521440 -21.329907 10.663897 132.246004 -66.027461 -160.527001 -1.175946 7.252984 9.403328 -3.254205 -66.785471 0.383650 -111.705460 83.687723 -110.864944 -3.430481 -12.844049 0.307713 -0.332329 0.769138 -0.132077 -11.670481 -69.840578 26.575201 103.841658 77.719337 100.506814 -16.276255 -19.248457 -1.031735 -0.208514 -1.411655 -0.003767
-28.926487 50.436968 7.287240 163.623982 -14.235146 -0.832100 4.059672 10.477799 0.606906 0.294330 0.709407 -0.027229 0.462833 1.263416 -0.066254 3.737603 9.749410 -0.179898 3.219787 16.981669 0.892304 5.649345 -4.236648 0.547024 4.857358 4.110770 -2.143898 -1.894854 -30.284810 -17.610355 -129.725000 -69.041803 151.861149 -0.255030 7.534853 -21.789250 -8.119248 0.079590 2.547861 11.578914 -21.210812 10.624709 132.356435 -65.939650 -160.691434 -1.219666 7.199509 9.260774 -3.242417 -66.828498 0.424722 -111.532626 83.689223 -110.699962 -3.421872 -12.825447 0.311256 -0.339706 0.763687 -0.136250 -11.627756 -69.881241 26.589795 103.724924 77.717304 100.396629 -16.264248 -19.148310 -1.059895 -0.276038 -1.374452 -0.023266
-28.927020 50.445764 7.296263 163.625146 -14.158152 -0.836086 4.041950 10.419648 0.594577 0.292689 0.708989 -0.028573 0.452021 1.269365 -0.073517 3.739146 9.720908 -0.194008 3.237048 16.907472 0.915190 5.674887 -4.374770 0.580656 4.827260 4.085052 -2.129087 -2.176059 -30.081849 -17.535712 -129.561359 -68.953762 151.834108 -0.226530 7.466110 -21.777220 -8.071780 0.032370 2.515202 11.652981 -21.113022 10.556355 132.456137 -65.843639 -160.867841 -1.247671 7.134187 9.117021 -3.278056 -66.900012 0.461373 -111.393924 83.690316 -110.567827 -3.415844 -12.809341 0.315166 -0.345983 0.755383 -0.144183 -11.649711 -69.950236 26.619085 103.486733 77.688292 100.156281 -16.274577 -19.025089 -1.089148 -0.260663 -1.405673 -0.012053
-28.926679 50.455032 7.305931 163.629407 -14.077869 -0.842261 4.022878 10.356627 0.584831 0.260975 0.748414 -0.049873 0.475784 1.230959 -0.061636 3.738085 9.687996 -0.209351 3.250281 16.843915 0.938490 5.692665 -4.493410 0.616836 4.793151 4.068851 -2.112411 -2.453657 -29.876192 -17.448614 -129.650787 -68.886342 152.028398 -0.177661 7.390343 -21.755892 -8.034931 0.026316 2.513923 11.772226 -21.041993 10.431283 132.550355 -65.744226 -161.053442 -1.261502 7.065892 8.975533 -3.340353 -66.970042 0.522539 -111.190545 83.689853 -110.379275 -3.414001 -12.801354 0.330517 -0.347227 0.755563 -0.159856 -11.698163 -70.024056 26.669345 103.261379 77.647905 99.929394 -16.305643 -18.892669 -1.115724 -0.249693 -1.464447 0.000061
